<svg width="14" height="9" viewBox="0 0 14 9" fill="none" xmlns="http://www.w3.org/2000/svg">
<path d="M2.00101 -2.45675e-07C1.1274 -2.45675e-07 0.521044 0.399782 0.181954 1.19935C-0.158431 1.99761 -0.0212419 2.70652 0.593521 3.32609L5.64105 8.41304C5.83519 8.6087 6.0455 8.75543 6.27199 8.85326C6.49848 8.95109 6.74115 9 7 9C7.25885 9 7.50152 8.95109 7.72801 8.85326C7.9545 8.75543 8.16481 8.6087 8.35895 8.41304L13.4065 3.32609C14.0212 2.70652 14.1584 1.99761 13.818 1.19935C13.479 0.399782 12.8726 -2.45675e-07 11.999 -2.45675e-07H2.00101Z" fill="#293A50"/>
</svg>
