<svg width="712" height="309" viewBox="0 0 712 309" fill="none" xmlns="http://www.w3.org/2000/svg">
<mask id="path-1-outside-1_305_2728" maskUnits="userSpaceOnUse" x="0.600586" y="0.419922" width="711" height="308" fill="black">
<rect fill="white" x="0.600586" y="0.419922" width="711" height="308"/>
<path d="M66.5306 3.99991V305H51.4806V151.49H16.6506V305H1.60059V3.99991H16.6506V145.04H51.4806V3.99991H66.5306Z"/>
<path d="M168.605 280.49C168.605 298.263 157.712 307.15 135.925 307.15C114.425 307.15 103.675 297.977 103.675 279.63V28.0799C103.675 10.3066 114.425 1.41992 135.925 1.41992C157.712 1.41992 168.605 10.5933 168.605 28.9399V280.49ZM153.555 30.6599C153.555 22.0599 152.552 16.1833 150.545 13.0299C148.539 9.58992 144.095 7.86992 137.215 7.86992C130.335 7.86992 125.462 9.44659 122.595 12.5999C120.015 15.4666 118.725 21.0566 118.725 29.3699V278.34C118.725 286.653 119.729 292.53 121.735 295.97C123.742 299.41 128.185 301.13 135.065 301.13C141.945 301.13 146.675 299.553 149.255 296.4C152.122 293.247 153.555 287.513 153.555 279.2V30.6599Z"/>
<path d="M205.75 3.99991H220.8V298.55H262.51V305H205.75V3.99991Z"/>
<path d="M313.216 3.99991V305H298.166V3.99991H313.216Z"/>
<path d="M386.39 3.99991C405.597 5.14658 415.2 14.0333 415.2 30.6599V277.48C415.2 295.827 404.737 305 383.81 305H350.27V3.99991H386.39ZM365.32 10.4499V298.98H383.81C390.69 298.98 395.133 297.26 397.14 293.82C399.147 290.38 400.15 284.503 400.15 276.19V31.9499C400.15 24.2099 399.003 18.9066 396.71 16.0399C394.417 12.8866 390.403 11.0233 384.67 10.4499H365.32Z"/>
<path d="M452.345 305L485.885 3.99991H491.905L521.575 305H506.525L497.495 206.1H469.115L458.365 305H452.345ZM469.975 199.65H497.065L485.025 65.9199L469.975 199.65Z"/>
<path d="M567.212 305V176L541.412 3.99991H556.462L579.252 158.37L603.332 3.99991H609.782L582.262 175.57V305H567.212Z"/>
<path d="M645.586 28.5099C645.586 10.4499 656.336 1.41992 677.836 1.41992C699.623 1.41992 710.516 10.8799 710.516 29.7999V89.9999H695.466V30.2299C695.466 21.9166 694.319 15.8966 692.026 12.1699C689.733 8.15658 685.146 6.14991 678.266 6.14991C671.386 6.14991 666.656 8.15658 664.076 12.1699C661.783 15.8966 660.636 21.9166 660.636 30.2299V81.8299C660.636 92.7233 662.069 100.75 664.936 105.91C668.949 113.65 673.823 120.673 679.556 126.98C685.576 133.287 690.163 138.59 693.316 142.89C696.469 146.903 699.336 151.633 701.916 157.08C707.649 169.12 710.516 183.31 710.516 199.65V280.06C710.516 298.12 699.623 307.15 677.836 307.15C656.336 307.15 645.586 297.69 645.586 278.77V219H660.636V278.34C660.636 286.653 661.783 292.817 664.076 296.83C666.369 300.557 670.956 302.42 677.836 302.42C684.716 302.42 689.303 300.557 691.596 296.83C694.176 292.817 695.466 286.653 695.466 278.34V203.09C695.466 186.75 694.033 175.283 691.166 168.69C687.153 158.943 682.136 150.773 676.116 144.18C670.383 137.587 665.939 132.427 662.786 128.7C659.633 124.973 656.766 120.96 654.186 116.66C648.453 106.627 645.586 95.7333 645.586 83.9799V28.5099Z"/>
</mask>
<path d="M66.5306 3.99991V305H51.4806V151.49H16.6506V305H1.60059V3.99991H16.6506V145.04H51.4806V3.99991H66.5306Z" fill="white"/>
<path d="M168.605 280.49C168.605 298.263 157.712 307.15 135.925 307.15C114.425 307.15 103.675 297.977 103.675 279.63V28.0799C103.675 10.3066 114.425 1.41992 135.925 1.41992C157.712 1.41992 168.605 10.5933 168.605 28.9399V280.49ZM153.555 30.6599C153.555 22.0599 152.552 16.1833 150.545 13.0299C148.539 9.58992 144.095 7.86992 137.215 7.86992C130.335 7.86992 125.462 9.44659 122.595 12.5999C120.015 15.4666 118.725 21.0566 118.725 29.3699V278.34C118.725 286.653 119.729 292.53 121.735 295.97C123.742 299.41 128.185 301.13 135.065 301.13C141.945 301.13 146.675 299.553 149.255 296.4C152.122 293.247 153.555 287.513 153.555 279.2V30.6599Z" fill="white"/>
<path d="M205.75 3.99991H220.8V298.55H262.51V305H205.75V3.99991Z" fill="white"/>
<path d="M313.216 3.99991V305H298.166V3.99991H313.216Z" fill="white"/>
<path d="M386.39 3.99991C405.597 5.14658 415.2 14.0333 415.2 30.6599V277.48C415.2 295.827 404.737 305 383.81 305H350.27V3.99991H386.39ZM365.32 10.4499V298.98H383.81C390.69 298.98 395.133 297.26 397.14 293.82C399.147 290.38 400.15 284.503 400.15 276.19V31.9499C400.15 24.2099 399.003 18.9066 396.71 16.0399C394.417 12.8866 390.403 11.0233 384.67 10.4499H365.32Z" fill="white"/>
<path d="M452.345 305L485.885 3.99991H491.905L521.575 305H506.525L497.495 206.1H469.115L458.365 305H452.345ZM469.975 199.65H497.065L485.025 65.9199L469.975 199.65Z" fill="white"/>
<path d="M567.212 305V176L541.412 3.99991H556.462L579.252 158.37L603.332 3.99991H609.782L582.262 175.57V305H567.212Z" fill="white"/>
<path d="M645.586 28.5099C645.586 10.4499 656.336 1.41992 677.836 1.41992C699.623 1.41992 710.516 10.8799 710.516 29.7999V89.9999H695.466V30.2299C695.466 21.9166 694.319 15.8966 692.026 12.1699C689.733 8.15658 685.146 6.14991 678.266 6.14991C671.386 6.14991 666.656 8.15658 664.076 12.1699C661.783 15.8966 660.636 21.9166 660.636 30.2299V81.8299C660.636 92.7233 662.069 100.75 664.936 105.91C668.949 113.65 673.823 120.673 679.556 126.98C685.576 133.287 690.163 138.59 693.316 142.89C696.469 146.903 699.336 151.633 701.916 157.08C707.649 169.12 710.516 183.31 710.516 199.65V280.06C710.516 298.12 699.623 307.15 677.836 307.15C656.336 307.15 645.586 297.69 645.586 278.77V219H660.636V278.34C660.636 286.653 661.783 292.817 664.076 296.83C666.369 300.557 670.956 302.42 677.836 302.42C684.716 302.42 689.303 300.557 691.596 296.83C694.176 292.817 695.466 286.653 695.466 278.34V203.09C695.466 186.75 694.033 175.283 691.166 168.69C687.153 158.943 682.136 150.773 676.116 144.18C670.383 137.587 665.939 132.427 662.786 128.7C659.633 124.973 656.766 120.96 654.186 116.66C648.453 106.627 645.586 95.7333 645.586 83.9799V28.5099Z" fill="white"/>
<path d="M66.5306 3.99991V305H51.4806V151.49H16.6506V305H1.60059V3.99991H16.6506V145.04H51.4806V3.99991H66.5306Z" stroke="white" stroke-width="2" mask="url(#path-1-outside-1_305_2728)"/>
<path d="M168.605 280.49C168.605 298.263 157.712 307.15 135.925 307.15C114.425 307.15 103.675 297.977 103.675 279.63V28.0799C103.675 10.3066 114.425 1.41992 135.925 1.41992C157.712 1.41992 168.605 10.5933 168.605 28.9399V280.49ZM153.555 30.6599C153.555 22.0599 152.552 16.1833 150.545 13.0299C148.539 9.58992 144.095 7.86992 137.215 7.86992C130.335 7.86992 125.462 9.44659 122.595 12.5999C120.015 15.4666 118.725 21.0566 118.725 29.3699V278.34C118.725 286.653 119.729 292.53 121.735 295.97C123.742 299.41 128.185 301.13 135.065 301.13C141.945 301.13 146.675 299.553 149.255 296.4C152.122 293.247 153.555 287.513 153.555 279.2V30.6599Z" stroke="white" stroke-width="2" mask="url(#path-1-outside-1_305_2728)"/>
<path d="M205.75 3.99991H220.8V298.55H262.51V305H205.75V3.99991Z" stroke="white" stroke-width="2" mask="url(#path-1-outside-1_305_2728)"/>
<path d="M313.216 3.99991V305H298.166V3.99991H313.216Z" stroke="white" stroke-width="2" mask="url(#path-1-outside-1_305_2728)"/>
<path d="M386.39 3.99991C405.597 5.14658 415.2 14.0333 415.2 30.6599V277.48C415.2 295.827 404.737 305 383.81 305H350.27V3.99991H386.39ZM365.32 10.4499V298.98H383.81C390.69 298.98 395.133 297.26 397.14 293.82C399.147 290.38 400.15 284.503 400.15 276.19V31.9499C400.15 24.2099 399.003 18.9066 396.71 16.0399C394.417 12.8866 390.403 11.0233 384.67 10.4499H365.32Z" stroke="white" stroke-width="2" mask="url(#path-1-outside-1_305_2728)"/>
<path d="M452.345 305L485.885 3.99991H491.905L521.575 305H506.525L497.495 206.1H469.115L458.365 305H452.345ZM469.975 199.65H497.065L485.025 65.9199L469.975 199.65Z" stroke="white" stroke-width="2" mask="url(#path-1-outside-1_305_2728)"/>
<path d="M567.212 305V176L541.412 3.99991H556.462L579.252 158.37L603.332 3.99991H609.782L582.262 175.57V305H567.212Z" stroke="white" stroke-width="2" mask="url(#path-1-outside-1_305_2728)"/>
<path d="M645.586 28.5099C645.586 10.4499 656.336 1.41992 677.836 1.41992C699.623 1.41992 710.516 10.8799 710.516 29.7999V89.9999H695.466V30.2299C695.466 21.9166 694.319 15.8966 692.026 12.1699C689.733 8.15658 685.146 6.14991 678.266 6.14991C671.386 6.14991 666.656 8.15658 664.076 12.1699C661.783 15.8966 660.636 21.9166 660.636 30.2299V81.8299C660.636 92.7233 662.069 100.75 664.936 105.91C668.949 113.65 673.823 120.673 679.556 126.98C685.576 133.287 690.163 138.59 693.316 142.89C696.469 146.903 699.336 151.633 701.916 157.08C707.649 169.12 710.516 183.31 710.516 199.65V280.06C710.516 298.12 699.623 307.15 677.836 307.15C656.336 307.15 645.586 297.69 645.586 278.77V219H660.636V278.34C660.636 286.653 661.783 292.817 664.076 296.83C666.369 300.557 670.956 302.42 677.836 302.42C684.716 302.42 689.303 300.557 691.596 296.83C694.176 292.817 695.466 286.653 695.466 278.34V203.09C695.466 186.75 694.033 175.283 691.166 168.69C687.153 158.943 682.136 150.773 676.116 144.18C670.383 137.587 665.939 132.427 662.786 128.7C659.633 124.973 656.766 120.96 654.186 116.66C648.453 106.627 645.586 95.7333 645.586 83.9799V28.5099Z" stroke="white" stroke-width="2" mask="url(#path-1-outside-1_305_2728)"/>
</svg>
