<svg width="711" height="309" viewBox="0 0 711 309" fill="none" xmlns="http://www.w3.org/2000/svg">
<mask id="path-1-outside-1_305_2729" maskUnits="userSpaceOnUse" x="0.00390625" y="0.419922" width="711" height="308" fill="black">
<rect fill="white" x="0.00390625" y="0.419922" width="711" height="308"/>
<path d="M1.00391 28.0799C1.00391 10.3066 11.7539 1.41992 33.2539 1.41992C55.0406 1.41992 65.9339 10.5933 65.9339 28.9399V89.9999H50.8839V30.6599C50.8839 22.0599 49.8806 16.1833 47.8739 13.0299C45.8672 9.58992 41.4239 7.86992 34.5439 7.86992C27.6639 7.86992 22.7906 9.44659 19.9239 12.5999C17.3439 15.4666 16.0539 21.0566 16.0539 29.3699V278.34C16.0539 286.653 17.0572 292.53 19.0639 295.97C21.0706 299.41 25.5139 301.13 32.3939 301.13C39.2739 301.13 44.0039 299.553 46.5839 296.4C49.4506 293.247 50.8839 287.513 50.8839 279.2V219H65.9339V280.49C65.9339 298.263 55.0406 307.15 33.2539 307.15C11.7539 307.15 1.00391 297.977 1.00391 279.63V28.0799Z"/>
<path d="M168.009 280.49C168.009 298.263 157.115 307.15 135.329 307.15C113.829 307.15 103.079 297.977 103.079 279.63V28.0799C103.079 10.3066 113.829 1.41992 135.329 1.41992C157.115 1.41992 168.009 10.5933 168.009 28.9399V280.49ZM152.959 30.6599C152.959 22.0599 151.955 16.1833 149.949 13.0299C147.942 9.58992 143.499 7.86992 136.619 7.86992C129.739 7.86992 124.865 9.44659 121.999 12.5999C119.419 15.4666 118.129 21.0566 118.129 29.3699V278.34C118.129 286.653 119.132 292.53 121.139 295.97C123.145 299.41 127.589 301.13 134.469 301.13C141.349 301.13 146.079 299.553 148.659 296.4C151.525 293.247 152.959 287.513 152.959 279.2V30.6599Z"/>
<path d="M205.153 305V3.99991H211.173L250.733 243.51L290.293 3.99991H296.313V305H281.263V95.5899L253.743 262H247.723L220.203 95.5899V305H205.153Z"/>
<path d="M399.913 3.99991V10.4499H348.313V150.2H391.313V156.65H348.313V305H333.263V3.99991H399.913Z"/>
<path d="M501.947 280.49C501.947 298.263 491.054 307.15 469.267 307.15C447.767 307.15 437.017 297.977 437.017 279.63V28.0799C437.017 10.3066 447.767 1.41992 469.267 1.41992C491.054 1.41992 501.947 10.5933 501.947 28.9399V280.49ZM486.897 30.6599C486.897 22.0599 485.894 16.1833 483.887 13.0299C481.881 9.58992 477.437 7.86992 470.557 7.86992C463.677 7.86992 458.804 9.44659 455.937 12.5999C453.357 15.4666 452.067 21.0566 452.067 29.3699V278.34C452.067 286.653 453.071 292.53 455.077 295.97C457.084 299.41 461.527 301.13 468.407 301.13C475.287 301.13 480.017 299.553 482.597 296.4C485.464 293.247 486.897 287.513 486.897 279.2V30.6599Z"/>
<path d="M575.212 3.99991C594.418 5.14658 604.022 14.0333 604.022 30.6599V125.69C604.022 138.303 599.292 146.473 589.832 150.2C599.292 154.213 604.022 161.953 604.022 173.42V305H588.972V175.14C588.972 167.4 587.825 162.097 585.532 159.23C583.238 156.077 579.225 154.213 573.492 153.64H554.142V305H539.092V3.99991H575.212ZM554.142 10.4499V147.19H572.632C579.512 147.19 583.955 145.47 585.962 142.03C587.968 138.59 588.972 132.713 588.972 124.4V31.9499C588.972 24.2099 587.825 18.9066 585.532 16.0399C583.238 12.8866 579.225 11.0233 573.492 10.4499H554.142Z"/>
<path d="M641.166 3.99991H709.536V10.4499H682.876V305H667.826V10.4499H641.166V3.99991Z"/>
</mask>
<path d="M1.00391 28.0799C1.00391 10.3066 11.7539 1.41992 33.2539 1.41992C55.0406 1.41992 65.9339 10.5933 65.9339 28.9399V89.9999H50.8839V30.6599C50.8839 22.0599 49.8806 16.1833 47.8739 13.0299C45.8672 9.58992 41.4239 7.86992 34.5439 7.86992C27.6639 7.86992 22.7906 9.44659 19.9239 12.5999C17.3439 15.4666 16.0539 21.0566 16.0539 29.3699V278.34C16.0539 286.653 17.0572 292.53 19.0639 295.97C21.0706 299.41 25.5139 301.13 32.3939 301.13C39.2739 301.13 44.0039 299.553 46.5839 296.4C49.4506 293.247 50.8839 287.513 50.8839 279.2V219H65.9339V280.49C65.9339 298.263 55.0406 307.15 33.2539 307.15C11.7539 307.15 1.00391 297.977 1.00391 279.63V28.0799Z" fill="white"/>
<path d="M168.009 280.49C168.009 298.263 157.115 307.15 135.329 307.15C113.829 307.15 103.079 297.977 103.079 279.63V28.0799C103.079 10.3066 113.829 1.41992 135.329 1.41992C157.115 1.41992 168.009 10.5933 168.009 28.9399V280.49ZM152.959 30.6599C152.959 22.0599 151.955 16.1833 149.949 13.0299C147.942 9.58992 143.499 7.86992 136.619 7.86992C129.739 7.86992 124.865 9.44659 121.999 12.5999C119.419 15.4666 118.129 21.0566 118.129 29.3699V278.34C118.129 286.653 119.132 292.53 121.139 295.97C123.145 299.41 127.589 301.13 134.469 301.13C141.349 301.13 146.079 299.553 148.659 296.4C151.525 293.247 152.959 287.513 152.959 279.2V30.6599Z" fill="white"/>
<path d="M205.153 305V3.99991H211.173L250.733 243.51L290.293 3.99991H296.313V305H281.263V95.5899L253.743 262H247.723L220.203 95.5899V305H205.153Z" fill="white"/>
<path d="M399.913 3.99991V10.4499H348.313V150.2H391.313V156.65H348.313V305H333.263V3.99991H399.913Z" fill="white"/>
<path d="M501.947 280.49C501.947 298.263 491.054 307.15 469.267 307.15C447.767 307.15 437.017 297.977 437.017 279.63V28.0799C437.017 10.3066 447.767 1.41992 469.267 1.41992C491.054 1.41992 501.947 10.5933 501.947 28.9399V280.49ZM486.897 30.6599C486.897 22.0599 485.894 16.1833 483.887 13.0299C481.881 9.58992 477.437 7.86992 470.557 7.86992C463.677 7.86992 458.804 9.44659 455.937 12.5999C453.357 15.4666 452.067 21.0566 452.067 29.3699V278.34C452.067 286.653 453.071 292.53 455.077 295.97C457.084 299.41 461.527 301.13 468.407 301.13C475.287 301.13 480.017 299.553 482.597 296.4C485.464 293.247 486.897 287.513 486.897 279.2V30.6599Z" fill="white"/>
<path d="M575.212 3.99991C594.418 5.14658 604.022 14.0333 604.022 30.6599V125.69C604.022 138.303 599.292 146.473 589.832 150.2C599.292 154.213 604.022 161.953 604.022 173.42V305H588.972V175.14C588.972 167.4 587.825 162.097 585.532 159.23C583.238 156.077 579.225 154.213 573.492 153.64H554.142V305H539.092V3.99991H575.212ZM554.142 10.4499V147.19H572.632C579.512 147.19 583.955 145.47 585.962 142.03C587.968 138.59 588.972 132.713 588.972 124.4V31.9499C588.972 24.2099 587.825 18.9066 585.532 16.0399C583.238 12.8866 579.225 11.0233 573.492 10.4499H554.142Z" fill="white"/>
<path d="M641.166 3.99991H709.536V10.4499H682.876V305H667.826V10.4499H641.166V3.99991Z" fill="white"/>
<path d="M1.00391 28.0799C1.00391 10.3066 11.7539 1.41992 33.2539 1.41992C55.0406 1.41992 65.9339 10.5933 65.9339 28.9399V89.9999H50.8839V30.6599C50.8839 22.0599 49.8806 16.1833 47.8739 13.0299C45.8672 9.58992 41.4239 7.86992 34.5439 7.86992C27.6639 7.86992 22.7906 9.44659 19.9239 12.5999C17.3439 15.4666 16.0539 21.0566 16.0539 29.3699V278.34C16.0539 286.653 17.0572 292.53 19.0639 295.97C21.0706 299.41 25.5139 301.13 32.3939 301.13C39.2739 301.13 44.0039 299.553 46.5839 296.4C49.4506 293.247 50.8839 287.513 50.8839 279.2V219H65.9339V280.49C65.9339 298.263 55.0406 307.15 33.2539 307.15C11.7539 307.15 1.00391 297.977 1.00391 279.63V28.0799Z" stroke="white" stroke-width="2" mask="url(#path-1-outside-1_305_2729)"/>
<path d="M168.009 280.49C168.009 298.263 157.115 307.15 135.329 307.15C113.829 307.15 103.079 297.977 103.079 279.63V28.0799C103.079 10.3066 113.829 1.41992 135.329 1.41992C157.115 1.41992 168.009 10.5933 168.009 28.9399V280.49ZM152.959 30.6599C152.959 22.0599 151.955 16.1833 149.949 13.0299C147.942 9.58992 143.499 7.86992 136.619 7.86992C129.739 7.86992 124.865 9.44659 121.999 12.5999C119.419 15.4666 118.129 21.0566 118.129 29.3699V278.34C118.129 286.653 119.132 292.53 121.139 295.97C123.145 299.41 127.589 301.13 134.469 301.13C141.349 301.13 146.079 299.553 148.659 296.4C151.525 293.247 152.959 287.513 152.959 279.2V30.6599Z" stroke="white" stroke-width="2" mask="url(#path-1-outside-1_305_2729)"/>
<path d="M205.153 305V3.99991H211.173L250.733 243.51L290.293 3.99991H296.313V305H281.263V95.5899L253.743 262H247.723L220.203 95.5899V305H205.153Z" stroke="white" stroke-width="2" mask="url(#path-1-outside-1_305_2729)"/>
<path d="M399.913 3.99991V10.4499H348.313V150.2H391.313V156.65H348.313V305H333.263V3.99991H399.913Z" stroke="white" stroke-width="2" mask="url(#path-1-outside-1_305_2729)"/>
<path d="M501.947 280.49C501.947 298.263 491.054 307.15 469.267 307.15C447.767 307.15 437.017 297.977 437.017 279.63V28.0799C437.017 10.3066 447.767 1.41992 469.267 1.41992C491.054 1.41992 501.947 10.5933 501.947 28.9399V280.49ZM486.897 30.6599C486.897 22.0599 485.894 16.1833 483.887 13.0299C481.881 9.58992 477.437 7.86992 470.557 7.86992C463.677 7.86992 458.804 9.44659 455.937 12.5999C453.357 15.4666 452.067 21.0566 452.067 29.3699V278.34C452.067 286.653 453.071 292.53 455.077 295.97C457.084 299.41 461.527 301.13 468.407 301.13C475.287 301.13 480.017 299.553 482.597 296.4C485.464 293.247 486.897 287.513 486.897 279.2V30.6599Z" stroke="white" stroke-width="2" mask="url(#path-1-outside-1_305_2729)"/>
<path d="M575.212 3.99991C594.418 5.14658 604.022 14.0333 604.022 30.6599V125.69C604.022 138.303 599.292 146.473 589.832 150.2C599.292 154.213 604.022 161.953 604.022 173.42V305H588.972V175.14C588.972 167.4 587.825 162.097 585.532 159.23C583.238 156.077 579.225 154.213 573.492 153.64H554.142V305H539.092V3.99991H575.212ZM554.142 10.4499V147.19H572.632C579.512 147.19 583.955 145.47 585.962 142.03C587.968 138.59 588.972 132.713 588.972 124.4V31.9499C588.972 24.2099 587.825 18.9066 585.532 16.0399C583.238 12.8866 579.225 11.0233 573.492 10.4499H554.142Z" stroke="white" stroke-width="2" mask="url(#path-1-outside-1_305_2729)"/>
<path d="M641.166 3.99991H709.536V10.4499H682.876V305H667.826V10.4499H641.166V3.99991Z" stroke="white" stroke-width="2" mask="url(#path-1-outside-1_305_2729)"/>
</svg>
