<svg width="29" height="32" viewBox="0 0 29 32" fill="none" xmlns="http://www.w3.org/2000/svg">
<path d="M29 28.8V6.4C29 4.6352 27.5548 3.2 25.7778 3.2H22.5556V0H19.3333V3.2H9.66667V0H6.44444V3.2H3.22222C1.44517 3.2 0 4.6352 0 6.4V28.8C0 30.5648 1.44517 32 3.22222 32H25.7778C27.5548 32 29 30.5648 29 28.8ZM9.66667 25.6H6.44444V22.4H9.66667V25.6ZM9.66667 19.2H6.44444V16H9.66667V19.2ZM16.1111 25.6H12.8889V22.4H16.1111V25.6ZM16.1111 19.2H12.8889V16H16.1111V19.2ZM22.5556 25.6H19.3333V22.4H22.5556V25.6ZM22.5556 19.2H19.3333V16H22.5556V19.2ZM25.7778 11.2H3.22222V8H25.7778V11.2Z" fill="#E9896B"/>
</svg>
