<svg width="192" height="119" viewBox="0 0 192 119" fill="none" xmlns="http://www.w3.org/2000/svg">
<mask id="path-1-outside-1_305_3329" maskUnits="userSpaceOnUse" x="0" y="0" width="192" height="119" fill="black">
<rect fill="white" width="192" height="119"/>
<path d="M0.858971 1.03432C3.27593 22.1169 10.7402 42.306 22.619 59.8904C34.4978 77.4748 50.4411 91.9361 69.0974 102.049C87.7536 112.161 108.573 117.626 129.791 117.982C151.008 118.337 171.999 113.571 190.983 104.089L190.843 103.808C171.904 113.268 150.963 118.022 129.796 117.668C108.629 117.313 87.8588 111.861 69.2469 101.773C50.635 91.6842 34.7297 77.2573 22.8791 59.7147C11.0285 42.1721 3.58203 22.031 1.17082 0.998566L0.858971 1.03432Z"/>
</mask>
<path d="M0.858971 1.03432C3.27593 22.1169 10.7402 42.306 22.619 59.8904C34.4978 77.4748 50.4411 91.9361 69.0974 102.049C87.7536 112.161 108.573 117.626 129.791 117.982C151.008 118.337 171.999 113.571 190.983 104.089L190.843 103.808C171.904 113.268 150.963 118.022 129.796 117.668C108.629 117.313 87.8588 111.861 69.2469 101.773C50.635 91.6842 34.7297 77.2573 22.8791 59.7147C11.0285 42.1721 3.58203 22.031 1.17082 0.998566L0.858971 1.03432Z" fill="#293A50"/>
<path d="M0.858971 1.03432C3.27593 22.1169 10.7402 42.306 22.619 59.8904C34.4978 77.4748 50.4411 91.9361 69.0974 102.049C87.7536 112.161 108.573 117.626 129.791 117.982C151.008 118.337 171.999 113.571 190.983 104.089L190.843 103.808C171.904 113.268 150.963 118.022 129.796 117.668C108.629 117.313 87.8588 111.861 69.2469 101.773C50.635 91.6842 34.7297 77.2573 22.8791 59.7147C11.0285 42.1721 3.58203 22.031 1.17082 0.998566L0.858971 1.03432Z" stroke="#293A50" stroke-width="0.6" mask="url(#path-1-outside-1_305_3329)"/>
</svg>
