<svg width="210" height="210" viewBox="0 0 210 210" fill="none" xmlns="http://www.w3.org/2000/svg">
<path d="M209.707 97.1702C211.342 119.025 206.096 140.844 194.706 159.568C183.316 178.292 166.353 192.983 146.194 201.582C126.035 210.18 103.691 212.255 82.2931 207.515C60.8955 202.776 41.5172 191.46 26.8744 175.153C12.2316 158.846 3.05843 138.366 0.640536 116.584C-1.77736 94.8016 2.68129 72.8086 13.3915 53.6876C24.1017 34.5666 40.5266 19.2762 60.364 9.95965C80.2014 0.643054 102.457 -2.23272 124.011 1.73542L123.825 2.74501C102.482 -1.18433 80.4439 1.66333 60.8004 10.8888C41.157 20.1143 24.8927 35.2552 14.2871 54.1893C3.68163 73.1233 -0.733424 94.9013 1.66083 116.471C4.05508 138.04 13.1386 158.32 27.6382 174.467C42.1378 190.615 61.3267 201.82 82.5151 206.513C103.704 211.206 125.829 209.152 145.791 200.637C165.753 192.123 182.551 177.576 193.829 159.035C205.108 140.494 210.302 118.888 208.684 97.2467L209.707 97.1702Z" fill="#293A50"/>
</svg>
