<svg width="174" height="26" viewBox="0 0 174 26" fill="none" xmlns="http://www.w3.org/2000/svg">
<path d="M0 1.21931H1.15671C2.04442 1.21931 2.20582 1.47035 2.20582 2.65379V24.5655H0.96841V25.4979H7.12857V24.5655H5.97186C5.08415 24.5655 4.92275 24.3145 4.92275 23.131V1.21931H6.16016V0.322759H0V1.21931Z" fill="#293A50"/>
<path d="M8.76045 1.21931H9.91716C10.8049 1.21931 10.9663 1.47035 10.9663 2.65379V23.92L9.72886 24.5655V25.4979H14.0867V24.5655H12.93C12.0423 24.5655 11.8809 24.3145 11.8809 23.131V3.04828L23.1252 26L25.5462 24.709V1.86483L26.7836 1.21931V0.322759H22.4258V1.21931H23.5825C24.4702 1.21931 24.6316 1.47035 24.6316 2.65379V22.8083L13.5756 0.322759H8.76045V1.21931Z" fill="#293A50"/>
<path d="M30.3633 6.67034H31.0627L32.5422 1.21931H36.5234V24.5655H35.286V25.4979H41.4193V24.5655H40.2626C39.3749 24.5655 39.2135 24.3145 39.2135 23.131V1.21931H43.1678L44.6742 6.67034H45.3736V0.322759H30.3633V6.67034Z" fill="#293A50"/>
<path d="M47.9802 1.21931H49.1369C50.0246 1.21931 50.186 1.47035 50.186 2.65379V24.5655H48.9486V25.4979H62.9368V19.1503H62.2105L60.7309 24.5655H53.9521C53.0644 24.5655 52.903 24.3145 52.903 23.131V12.9462H58.8479V12.7669L58.7672 11.7628C57.6912 11.9062 56.8304 12.0138 54.9205 12.0138H52.903V1.21931H59.7625L61.2689 6.67034H61.9684V0.322759H47.9802V1.21931Z" fill="#293A50"/>
<path d="M65.541 1.21931H66.6978C67.5855 1.21931 67.7469 1.47035 67.7469 2.65379V24.5655H66.5095V25.4979H72.6696V24.5655H71.5129C70.6252 24.5655 70.4638 24.3145 70.4638 23.131V13.0179C71.1363 13.1255 71.7281 13.1614 72.1585 13.1614H72.4813L78.0766 24.5655V25.4979H82.8648V24.5655H82.2999C81.4122 24.5655 80.8742 24.0993 80.39 23.131L75.3058 12.7669C77.9152 12.0855 79.9327 10.2566 79.9327 6.31172C79.9327 1.57793 76.3819 0 73.1269 0C71.8895 0 71.217 0.0717232 70.0334 0.322759H65.541V1.21931ZM70.4638 12.0138V1.21931C70.4638 1.21931 71.1363 1.04 71.9433 1.04C76.0591 1.04 77.2427 3.51448 77.2427 6.49103C77.2427 10.5076 75.0906 12.1214 72.024 12.1214C71.486 12.1214 71.0018 12.0855 70.4638 12.0138Z" fill="#293A50"/>
<path d="M84.4906 12.8028C84.4906 19.8317 88.3105 25.7848 94.363 25.7848C96.3805 25.7848 98.1559 25.0676 99.6086 23.8124L101.438 23.6331V12.9462H102.675V12.0138H96.5419V12.9462H97.6986C98.5863 12.9462 98.7478 13.1972 98.7478 14.3807V23.2028C97.591 23.92 96.2191 24.3145 94.632 24.3145C89.9783 24.3145 87.1806 18.7917 87.1806 12.6234C87.1806 6.59862 89.6824 1.04 94.363 1.04C96.1384 1.04 97.6179 1.7931 98.7478 3.01241L99.77 6.67034H100.496V0.322759H99.7431L98.4519 1.04C97.0799 0.286897 95.708 0 94.363 0C88.445 0 84.4906 5.73793 84.4906 12.8028Z" fill="#293A50"/>
<path d="M105.286 1.21931H106.443C107.331 1.21931 107.492 1.47035 107.492 2.65379V17.2138C107.492 23.2028 109.698 25.7848 113.491 25.7848C115.32 25.7848 116.934 25.1034 119.463 23.7766V24.5655L119.543 25.4979H124.385V24.5655H123.229C122.341 24.5655 122.18 24.3145 122.18 23.131V1.21931H123.417V0.322759H117.257V1.21931H118.414C119.301 1.21931 119.463 1.47035 119.463 2.65379V22.7366C116.531 24.2786 115.32 24.3145 114.298 24.3145C111.984 24.3145 110.209 22.7366 110.209 16.4248V1.21931H111.419V0.322759H105.286V1.21931Z" fill="#293A50"/>
<path d="M126.026 1.21931H127.182C128.07 1.21931 128.232 1.47035 128.232 2.65379V24.5655H126.994V25.4979H140.982V19.1503H140.256L138.776 24.5655H131.998C131.11 24.5655 130.948 24.3145 130.948 23.131V12.9462H136.893V12.7669L136.813 11.7628C135.737 11.9062 134.876 12.0138 132.966 12.0138H130.948V1.21931H137.808L139.314 6.67034H140.014V0.322759H126.026V1.21931Z" fill="#293A50"/>
<path d="M144.555 25.4979H145.308L146.599 24.7807C147.837 25.4979 149.02 25.8566 150.527 25.8566C152.921 25.8566 156.633 24.171 156.633 18.9352C156.633 9.86207 147.164 12.8745 147.164 5.63034C147.164 2.43862 148.859 1.04 150.446 1.04C151.549 1.04 152.491 1.3269 153.351 1.86483L154.696 6.67034H155.396V0.322759H154.669L153.862 0.788966C152.733 0.251033 151.657 0 150.285 0C147.137 0 144.716 2.47448 144.716 6.38345C144.716 15.3848 154.131 12.3007 154.131 19.4731C154.131 22.9517 152.437 24.7807 150.392 24.7807C148.724 24.7807 147.379 24.0276 146.303 22.8083L145.281 19.1503H144.555V25.4979Z" fill="#293A50"/>
<path d="M158.99 6.67034H159.689L161.169 1.21931H165.15V24.5655H163.912V25.4979H170.046V24.5655H168.889C168.001 24.5655 167.84 24.3145 167.84 23.131V1.21931H171.794L173.301 6.67034H174V0.322759H158.99V6.67034Z" fill="#293A50"/>
</svg>
