<?xml version="1.0" encoding="utf-8"?><svg viewBox="0 0 712 309" xmlns="http://www.w3.org/2000/svg" xmlns:xlink="http://www.w3.org/1999/xlink"><style>:root>svg{display:none}:root>svg:target{display:block}</style><svg viewBox="0 0 711 309" id="title-text-left" xmlns="http://www.w3.org/2000/svg"><mask id="aa" maskUnits="userSpaceOnUse" x=".004" y=".42" width="711" height="308"><path d="M.004.42h711v308h-711z"/><path d="M1.004 28.08c0-17.773 10.75-26.66 32.25-26.66 21.787 0 32.68 9.173 32.68 27.52V90h-15.05V30.66c0-8.6-1.003-14.477-3.01-17.63-2.007-3.44-6.45-5.16-13.33-5.16S22.79 9.447 19.924 12.6c-2.58 2.867-3.87 8.457-3.87 16.77v248.97c0 8.313 1.003 14.19 3.01 17.63 2.007 3.44 6.45 5.16 13.33 5.16s11.61-1.577 14.19-4.73c2.867-3.153 4.3-8.887 4.3-17.2V219h15.05v61.49c0 17.773-10.893 26.66-32.68 26.66-21.5 0-32.25-9.173-32.25-27.52V28.08zm167.005 252.41c0 17.773-10.894 26.66-32.68 26.66-21.5 0-32.25-9.173-32.25-27.52V28.08c0-17.773 10.75-26.66 32.25-26.66 21.786 0 32.68 9.173 32.68 27.52v251.55zm-15.05-249.83c0-8.6-1.004-14.477-3.01-17.63-2.007-3.44-6.45-5.16-13.33-5.16s-11.754 1.577-14.62 4.73c-2.58 2.867-3.87 8.457-3.87 16.77v248.97c0 8.313 1.003 14.19 3.01 17.63 2.006 3.44 6.45 5.16 13.33 5.16s11.61-1.577 14.19-4.73c2.866-3.153 4.3-8.887 4.3-17.2V30.66zM205.153 305V4h6.02l39.56 239.51L290.293 4h6.02v301h-15.05V95.59L253.743 262h-6.02l-27.52-166.41V305h-15.05zM399.913 4v6.45h-51.6V150.2h43v6.45h-43V305h-15.05V4h66.65zm102.034 276.49c0 17.773-10.893 26.66-32.68 26.66-21.5 0-32.25-9.173-32.25-27.52V28.08c0-17.773 10.75-26.66 32.25-26.66 21.787 0 32.68 9.173 32.68 27.52v251.55zm-15.05-249.83c0-8.6-1.003-14.477-3.01-17.63-2.006-3.44-6.45-5.16-13.33-5.16s-11.753 1.577-14.62 4.73c-2.58 2.867-3.87 8.457-3.87 16.77v248.97c0 8.313 1.004 14.19 3.01 17.63 2.007 3.44 6.45 5.16 13.33 5.16s11.61-1.577 14.19-4.73c2.867-3.153 4.3-8.887 4.3-17.2V30.66zM575.212 4c19.206 1.147 28.81 10.033 28.81 26.66v95.03c0 12.613-4.73 20.783-14.19 24.51 9.46 4.013 14.19 11.753 14.19 23.22V305h-15.05V175.14c0-7.74-1.147-13.043-3.44-15.91-2.294-3.153-6.307-5.017-12.04-5.59h-19.35V305h-15.05V4h36.12zm-21.07 6.45v136.74h18.49c6.88 0 11.323-1.72 13.33-5.16 2.006-3.44 3.01-9.317 3.01-17.63V31.95c0-7.74-1.147-13.043-3.44-15.91-2.294-3.153-6.307-5.017-12.04-5.59h-19.35zM641.166 4h68.37v6.45h-26.66V305h-15.05V10.45h-26.66V4z"/></mask><path d="M1.004 28.08c0-17.773 10.75-26.66 32.25-26.66 21.787 0 32.68 9.173 32.68 27.52V90h-15.05V30.66c0-8.6-1.003-14.477-3.01-17.63-2.007-3.44-6.45-5.16-13.33-5.16S22.79 9.447 19.924 12.6c-2.58 2.867-3.87 8.457-3.87 16.77v248.97c0 8.313 1.003 14.19 3.01 17.63 2.007 3.44 6.45 5.16 13.33 5.16s11.61-1.577 14.19-4.73c2.867-3.153 4.3-8.887 4.3-17.2V219h15.05v61.49c0 17.773-10.893 26.66-32.68 26.66-21.5 0-32.25-9.173-32.25-27.52V28.08zm167.005 252.41c0 17.773-10.894 26.66-32.68 26.66-21.5 0-32.25-9.173-32.25-27.52V28.08c0-17.773 10.75-26.66 32.25-26.66 21.786 0 32.68 9.173 32.68 27.52v251.55zm-15.05-249.83c0-8.6-1.004-14.477-3.01-17.63-2.007-3.44-6.45-5.16-13.33-5.16s-11.754 1.577-14.62 4.73c-2.58 2.867-3.87 8.457-3.87 16.77v248.97c0 8.313 1.003 14.19 3.01 17.63 2.006 3.44 6.45 5.16 13.33 5.16s11.61-1.577 14.19-4.73c2.866-3.153 4.3-8.887 4.3-17.2V30.66zM205.153 305V4h6.02l39.56 239.51L290.293 4h6.02v301h-15.05V95.59L253.743 262h-6.02l-27.52-166.41V305h-15.05zM399.913 4v6.45h-51.6V150.2h43v6.45h-43V305h-15.05V4h66.65zm102.034 276.49c0 17.773-10.893 26.66-32.68 26.66-21.5 0-32.25-9.173-32.25-27.52V28.08c0-17.773 10.75-26.66 32.25-26.66 21.787 0 32.68 9.173 32.68 27.52v251.55zm-15.05-249.83c0-8.6-1.003-14.477-3.01-17.63-2.006-3.44-6.45-5.16-13.33-5.16s-11.753 1.577-14.62 4.73c-2.58 2.867-3.87 8.457-3.87 16.77v248.97c0 8.313 1.004 14.19 3.01 17.63 2.007 3.44 6.45 5.16 13.33 5.16s11.61-1.577 14.19-4.73c2.867-3.153 4.3-8.887 4.3-17.2V30.66zM575.212 4c19.206 1.147 28.81 10.033 28.81 26.66v95.03c0 12.613-4.73 20.783-14.19 24.51 9.46 4.013 14.19 11.753 14.19 23.22V305h-15.05V175.14c0-7.74-1.147-13.043-3.44-15.91-2.294-3.153-6.307-5.017-12.04-5.59h-19.35V305h-15.05V4h36.12zm-21.07 6.45v136.74h18.49c6.88 0 11.323-1.72 13.33-5.16 2.006-3.44 3.01-9.317 3.01-17.63V31.95c0-7.74-1.147-13.043-3.44-15.91-2.294-3.153-6.307-5.017-12.04-5.59h-19.35zM641.166 4h68.37v6.45h-26.66V305h-15.05V10.45h-26.66V4z"/><path d="M1.004 28.08c0-17.773 10.75-26.66 32.25-26.66 21.787 0 32.68 9.173 32.68 27.52V90h-15.05V30.66c0-8.6-1.003-14.477-3.01-17.63-2.007-3.44-6.45-5.16-13.33-5.16S22.79 9.447 19.924 12.6c-2.58 2.867-3.87 8.457-3.87 16.77v248.97c0 8.313 1.003 14.19 3.01 17.63 2.007 3.44 6.45 5.16 13.33 5.16s11.61-1.577 14.19-4.73c2.867-3.153 4.3-8.887 4.3-17.2V219h15.05v61.49c0 17.773-10.893 26.66-32.68 26.66-21.5 0-32.25-9.173-32.25-27.52V28.08zm167.005 252.41c0 17.773-10.894 26.66-32.68 26.66-21.5 0-32.25-9.173-32.25-27.52V28.08c0-17.773 10.75-26.66 32.25-26.66 21.786 0 32.68 9.173 32.68 27.52v251.55zm-15.05-249.83c0-8.6-1.004-14.477-3.01-17.63-2.007-3.44-6.45-5.16-13.33-5.16s-11.754 1.577-14.62 4.73c-2.58 2.867-3.87 8.457-3.87 16.77v248.97c0 8.313 1.003 14.19 3.01 17.63 2.006 3.44 6.45 5.16 13.33 5.16s11.61-1.577 14.19-4.73c2.866-3.153 4.3-8.887 4.3-17.2V30.66zM205.153 305V4h6.02l39.56 239.51L290.293 4h6.02v301h-15.05V95.59L253.743 262h-6.02l-27.52-166.41V305h-15.05zM399.913 4v6.45h-51.6V150.2h43v6.45h-43V305h-15.05V4h66.65zm102.034 276.49c0 17.773-10.893 26.66-32.68 26.66-21.5 0-32.25-9.173-32.25-27.52V28.08c0-17.773 10.75-26.66 32.25-26.66 21.787 0 32.68 9.173 32.68 27.52v251.55zm-15.05-249.83c0-8.6-1.003-14.477-3.01-17.63-2.006-3.44-6.45-5.16-13.33-5.16s-11.753 1.577-14.62 4.73c-2.58 2.867-3.87 8.457-3.87 16.77v248.97c0 8.313 1.004 14.19 3.01 17.63 2.007 3.44 6.45 5.16 13.33 5.16s11.61-1.577 14.19-4.73c2.867-3.153 4.3-8.887 4.3-17.2V30.66zM575.212 4c19.206 1.147 28.81 10.033 28.81 26.66v95.03c0 12.613-4.73 20.783-14.19 24.51 9.46 4.013 14.19 11.753 14.19 23.22V305h-15.05V175.14c0-7.74-1.147-13.043-3.44-15.91-2.294-3.153-6.307-5.017-12.04-5.59h-19.35V305h-15.05V4h36.12zm-21.07 6.45v136.74h18.49c6.88 0 11.323-1.72 13.33-5.16 2.006-3.44 3.01-9.317 3.01-17.63V31.95c0-7.74-1.147-13.043-3.44-15.91-2.294-3.153-6.307-5.017-12.04-5.59h-19.35zM641.166 4h68.37v6.45h-26.66V305h-15.05V10.45h-26.66V4z" mask="url(#aa)"/></svg><svg viewBox="0 0 712 309" id="title-text-right" xmlns="http://www.w3.org/2000/svg"><mask id="ba" maskUnits="userSpaceOnUse" x=".6" y=".42" width="711" height="308"><path d="M.6.42h711v308H.6z"/><path d="M66.53 4v301H51.48V151.49H16.65V305H1.6V4h15.05v141.04h34.83V4h15.05zm102.074 276.49c0 17.773-10.893 26.66-32.68 26.66-21.5 0-32.25-9.173-32.25-27.52V28.08c0-17.773 10.75-26.66 32.25-26.66 21.787 0 32.68 9.173 32.68 27.52v251.55zm-15.05-249.83c0-8.6-1.003-14.477-3.01-17.63-2.006-3.44-6.45-5.16-13.33-5.16s-11.753 1.577-14.62 4.73c-2.58 2.867-3.87 8.457-3.87 16.77v248.97c0 8.313 1.004 14.19 3.01 17.63 2.007 3.44 6.45 5.16 13.33 5.16s11.61-1.577 14.19-4.73c2.867-3.153 4.3-8.887 4.3-17.2V30.66zM205.749 4h15.05v294.55h41.71V305h-56.76V4zm107.466 0v301h-15.05V4h15.05zm73.174 0c19.207 1.147 28.81 10.033 28.81 26.66v246.82c0 18.347-10.463 27.52-31.39 27.52h-33.54V4h36.12zm-21.07 6.45v288.53h18.49c6.88 0 11.323-1.72 13.33-5.16 2.007-3.44 3.01-9.317 3.01-17.63V31.95c0-7.74-1.147-13.043-3.44-15.91-2.293-3.153-6.307-5.017-12.04-5.59h-19.35zM452.344 305l33.54-301h6.02l29.67 301h-15.05l-9.03-98.9h-28.38l-10.75 98.9h-6.02zm17.63-105.35h27.09l-12.04-133.73-15.05 133.73zM567.211 305V176l-25.8-172h15.05l22.79 154.37L603.331 4h6.45l-27.52 171.57V305h-15.05zm78.374-276.49c0-18.06 10.75-27.09 32.25-27.09 21.787 0 32.68 9.46 32.68 28.38V90h-15.05V30.23c0-8.313-1.147-14.333-3.44-18.06-2.293-4.013-6.88-6.02-13.76-6.02s-11.61 2.007-14.19 6.02c-2.293 3.727-3.44 9.747-3.44 18.06v51.6c0 10.893 1.433 18.92 4.3 24.08 4.013 7.74 8.887 14.763 14.62 21.07 6.02 6.307 10.607 11.61 13.76 15.91 3.153 4.013 6.02 8.743 8.6 14.19 5.733 12.04 8.6 26.23 8.6 42.57v80.41c0 18.06-10.893 27.09-32.68 27.09-21.5 0-32.25-9.46-32.25-28.38V219h15.05v59.34c0 8.313 1.147 14.477 3.44 18.49 2.293 3.727 6.88 5.59 13.76 5.59s11.467-1.863 13.76-5.59c2.58-4.013 3.87-10.177 3.87-18.49v-75.25c0-16.34-1.433-27.807-4.3-34.4-4.013-9.747-9.03-17.917-15.05-24.51-5.733-6.593-10.177-11.753-13.33-15.48a91.44 91.44 0 01-8.6-12.04c-5.733-10.033-8.6-20.927-8.6-32.68V28.51z"/></mask><path d="M66.53 4v301H51.48V151.49H16.65V305H1.6V4h15.05v141.04h34.83V4h15.05zm102.074 276.49c0 17.773-10.893 26.66-32.68 26.66-21.5 0-32.25-9.173-32.25-27.52V28.08c0-17.773 10.75-26.66 32.25-26.66 21.787 0 32.68 9.173 32.68 27.52v251.55zm-15.05-249.83c0-8.6-1.003-14.477-3.01-17.63-2.006-3.44-6.45-5.16-13.33-5.16s-11.753 1.577-14.62 4.73c-2.58 2.867-3.87 8.457-3.87 16.77v248.97c0 8.313 1.004 14.19 3.01 17.63 2.007 3.44 6.45 5.16 13.33 5.16s11.61-1.577 14.19-4.73c2.867-3.153 4.3-8.887 4.3-17.2V30.66zM205.749 4h15.05v294.55h41.71V305h-56.76V4zm107.466 0v301h-15.05V4h15.05zm73.174 0c19.207 1.147 28.81 10.033 28.81 26.66v246.82c0 18.347-10.463 27.52-31.39 27.52h-33.54V4h36.12zm-21.07 6.45v288.53h18.49c6.88 0 11.323-1.72 13.33-5.16 2.007-3.44 3.01-9.317 3.01-17.63V31.95c0-7.74-1.147-13.043-3.44-15.91-2.293-3.153-6.307-5.017-12.04-5.59h-19.35zM452.344 305l33.54-301h6.02l29.67 301h-15.05l-9.03-98.9h-28.38l-10.75 98.9h-6.02zm17.63-105.35h27.09l-12.04-133.73-15.05 133.73zM567.211 305V176l-25.8-172h15.05l22.79 154.37L603.331 4h6.45l-27.52 171.57V305h-15.05zm78.374-276.49c0-18.06 10.75-27.09 32.25-27.09 21.787 0 32.68 9.46 32.68 28.38V90h-15.05V30.23c0-8.313-1.147-14.333-3.44-18.06-2.293-4.013-6.88-6.02-13.76-6.02s-11.61 2.007-14.19 6.02c-2.293 3.727-3.44 9.747-3.44 18.06v51.6c0 10.893 1.433 18.92 4.3 24.08 4.013 7.74 8.887 14.763 14.62 21.07 6.02 6.307 10.607 11.61 13.76 15.91 3.153 4.013 6.02 8.743 8.6 14.19 5.733 12.04 8.6 26.23 8.6 42.57v80.41c0 18.06-10.893 27.09-32.68 27.09-21.5 0-32.25-9.46-32.25-28.38V219h15.05v59.34c0 8.313 1.147 14.477 3.44 18.49 2.293 3.727 6.88 5.59 13.76 5.59s11.467-1.863 13.76-5.59c2.58-4.013 3.87-10.177 3.87-18.49v-75.25c0-16.34-1.433-27.807-4.3-34.4-4.013-9.747-9.03-17.917-15.05-24.51-5.733-6.593-10.177-11.753-13.33-15.48a91.44 91.44 0 01-8.6-12.04c-5.733-10.033-8.6-20.927-8.6-32.68V28.51z"/><path d="M66.53 4v301H51.48V151.49H16.65V305H1.6V4h15.05v141.04h34.83V4h15.05zm102.074 276.49c0 17.773-10.893 26.66-32.68 26.66-21.5 0-32.25-9.173-32.25-27.52V28.08c0-17.773 10.75-26.66 32.25-26.66 21.787 0 32.68 9.173 32.68 27.52v251.55zm-15.05-249.83c0-8.6-1.003-14.477-3.01-17.63-2.006-3.44-6.45-5.16-13.33-5.16s-11.753 1.577-14.62 4.73c-2.58 2.867-3.87 8.457-3.87 16.77v248.97c0 8.313 1.004 14.19 3.01 17.63 2.007 3.44 6.45 5.16 13.33 5.16s11.61-1.577 14.19-4.73c2.867-3.153 4.3-8.887 4.3-17.2V30.66zM205.749 4h15.05v294.55h41.71V305h-56.76V4zm107.466 0v301h-15.05V4h15.05zm73.174 0c19.207 1.147 28.81 10.033 28.81 26.66v246.82c0 18.347-10.463 27.52-31.39 27.52h-33.54V4h36.12zm-21.07 6.45v288.53h18.49c6.88 0 11.323-1.72 13.33-5.16 2.007-3.44 3.01-9.317 3.01-17.63V31.95c0-7.74-1.147-13.043-3.44-15.91-2.293-3.153-6.307-5.017-12.04-5.59h-19.35zM452.344 305l33.54-301h6.02l29.67 301h-15.05l-9.03-98.9h-28.38l-10.75 98.9h-6.02zm17.63-105.35h27.09l-12.04-133.73-15.05 133.73zM567.211 305V176l-25.8-172h15.05l22.79 154.37L603.331 4h6.45l-27.52 171.57V305h-15.05zm78.374-276.49c0-18.06 10.75-27.09 32.25-27.09 21.787 0 32.68 9.46 32.68 28.38V90h-15.05V30.23c0-8.313-1.147-14.333-3.44-18.06-2.293-4.013-6.88-6.02-13.76-6.02s-11.61 2.007-14.19 6.02c-2.293 3.727-3.44 9.747-3.44 18.06v51.6c0 10.893 1.433 18.92 4.3 24.08 4.013 7.74 8.887 14.763 14.62 21.07 6.02 6.307 10.607 11.61 13.76 15.91 3.153 4.013 6.02 8.743 8.6 14.19 5.733 12.04 8.6 26.23 8.6 42.57v80.41c0 18.06-10.893 27.09-32.68 27.09-21.5 0-32.25-9.46-32.25-28.38V219h15.05v59.34c0 8.313 1.147 14.477 3.44 18.49 2.293 3.727 6.88 5.59 13.76 5.59s11.467-1.863 13.76-5.59c2.58-4.013 3.87-10.177 3.87-18.49v-75.25c0-16.34-1.433-27.807-4.3-34.4-4.013-9.747-9.03-17.917-15.05-24.51-5.733-6.593-10.177-11.753-13.33-15.48a91.44 91.44 0 01-8.6-12.04c-5.733-10.033-8.6-20.927-8.6-32.68V28.51z" mask="url(#ba)"/></svg></svg>