<svg width="712" height="309" viewBox="0 0 712 309" fill="none" xmlns="http://www.w3.org/2000/svg">
<mask id="path-1-outside-1_305_2731" maskUnits="userSpaceOnUse" x="0.599609" y="0.419922" width="711" height="308" fill="black">
<rect fill="white" x="0.599609" y="0.419922" width="711" height="308"/>
<path d="M66.5296 3.99991V305H51.4796V151.49H16.6496V305H1.59961V3.99991H16.6496V145.04H51.4796V3.99991H66.5296Z"/>
<path d="M168.604 280.49C168.604 298.263 157.711 307.15 135.924 307.15C114.424 307.15 103.674 297.977 103.674 279.63V28.0799C103.674 10.3066 114.424 1.41992 135.924 1.41992C157.711 1.41992 168.604 10.5933 168.604 28.9399V280.49ZM153.554 30.6599C153.554 22.0599 152.551 16.1833 150.544 13.0299C148.538 9.58992 144.094 7.86992 137.214 7.86992C130.334 7.86992 125.461 9.44659 122.594 12.5999C120.014 15.4666 118.724 21.0566 118.724 29.3699V278.34C118.724 286.653 119.728 292.53 121.734 295.97C123.741 299.41 128.184 301.13 135.064 301.13C141.944 301.13 146.674 299.553 149.254 296.4C152.121 293.247 153.554 287.513 153.554 279.2V30.6599Z"/>
<path d="M205.749 3.99991H220.799V298.55H262.509V305H205.749V3.99991Z"/>
<path d="M313.215 3.99991V305H298.165V3.99991H313.215Z"/>
<path d="M386.389 3.99991C405.596 5.14658 415.199 14.0333 415.199 30.6599V277.48C415.199 295.827 404.736 305 383.809 305H350.269V3.99991H386.389ZM365.319 10.4499V298.98H383.809C390.689 298.98 395.132 297.26 397.139 293.82C399.146 290.38 400.149 284.503 400.149 276.19V31.9499C400.149 24.2099 399.002 18.9066 396.709 16.0399C394.416 12.8866 390.402 11.0233 384.669 10.4499H365.319Z"/>
<path d="M452.344 305L485.884 3.99991H491.904L521.574 305H506.524L497.494 206.1H469.114L458.364 305H452.344ZM469.974 199.65H497.064L485.024 65.9199L469.974 199.65Z"/>
<path d="M567.211 305V176L541.411 3.99991H556.461L579.251 158.37L603.331 3.99991H609.781L582.261 175.57V305H567.211Z"/>
<path d="M645.585 28.5099C645.585 10.4499 656.335 1.41992 677.835 1.41992C699.622 1.41992 710.515 10.8799 710.515 29.7999V89.9999H695.465V30.2299C695.465 21.9166 694.318 15.8966 692.025 12.1699C689.732 8.15658 685.145 6.14991 678.265 6.14991C671.385 6.14991 666.655 8.15658 664.075 12.1699C661.782 15.8966 660.635 21.9166 660.635 30.2299V81.8299C660.635 92.7233 662.068 100.75 664.935 105.91C668.948 113.65 673.822 120.673 679.555 126.98C685.575 133.287 690.162 138.59 693.315 142.89C696.468 146.903 699.335 151.633 701.915 157.08C707.648 169.12 710.515 183.31 710.515 199.65V280.06C710.515 298.12 699.622 307.15 677.835 307.15C656.335 307.15 645.585 297.69 645.585 278.77V219H660.635V278.34C660.635 286.653 661.782 292.817 664.075 296.83C666.368 300.557 670.955 302.42 677.835 302.42C684.715 302.42 689.302 300.557 691.595 296.83C694.175 292.817 695.465 286.653 695.465 278.34V203.09C695.465 186.75 694.032 175.283 691.165 168.69C687.152 158.943 682.135 150.773 676.115 144.18C670.382 137.587 665.938 132.427 662.785 128.7C659.632 124.973 656.765 120.96 654.185 116.66C648.452 106.627 645.585 95.7333 645.585 83.9799V28.5099Z"/>
</mask>
<path d="M66.5296 3.99991V305H51.4796V151.49H16.6496V305H1.59961V3.99991H16.6496V145.04H51.4796V3.99991H66.5296Z" fill="#293A50"/>
<path d="M168.604 280.49C168.604 298.263 157.711 307.15 135.924 307.15C114.424 307.15 103.674 297.977 103.674 279.63V28.0799C103.674 10.3066 114.424 1.41992 135.924 1.41992C157.711 1.41992 168.604 10.5933 168.604 28.9399V280.49ZM153.554 30.6599C153.554 22.0599 152.551 16.1833 150.544 13.0299C148.538 9.58992 144.094 7.86992 137.214 7.86992C130.334 7.86992 125.461 9.44659 122.594 12.5999C120.014 15.4666 118.724 21.0566 118.724 29.3699V278.34C118.724 286.653 119.728 292.53 121.734 295.97C123.741 299.41 128.184 301.13 135.064 301.13C141.944 301.13 146.674 299.553 149.254 296.4C152.121 293.247 153.554 287.513 153.554 279.2V30.6599Z" fill="#293A50"/>
<path d="M205.749 3.99991H220.799V298.55H262.509V305H205.749V3.99991Z" fill="#293A50"/>
<path d="M313.215 3.99991V305H298.165V3.99991H313.215Z" fill="#293A50"/>
<path d="M386.389 3.99991C405.596 5.14658 415.199 14.0333 415.199 30.6599V277.48C415.199 295.827 404.736 305 383.809 305H350.269V3.99991H386.389ZM365.319 10.4499V298.98H383.809C390.689 298.98 395.132 297.26 397.139 293.82C399.146 290.38 400.149 284.503 400.149 276.19V31.9499C400.149 24.2099 399.002 18.9066 396.709 16.0399C394.416 12.8866 390.402 11.0233 384.669 10.4499H365.319Z" fill="#293A50"/>
<path d="M452.344 305L485.884 3.99991H491.904L521.574 305H506.524L497.494 206.1H469.114L458.364 305H452.344ZM469.974 199.65H497.064L485.024 65.9199L469.974 199.65Z" fill="#293A50"/>
<path d="M567.211 305V176L541.411 3.99991H556.461L579.251 158.37L603.331 3.99991H609.781L582.261 175.57V305H567.211Z" fill="#293A50"/>
<path d="M645.585 28.5099C645.585 10.4499 656.335 1.41992 677.835 1.41992C699.622 1.41992 710.515 10.8799 710.515 29.7999V89.9999H695.465V30.2299C695.465 21.9166 694.318 15.8966 692.025 12.1699C689.732 8.15658 685.145 6.14991 678.265 6.14991C671.385 6.14991 666.655 8.15658 664.075 12.1699C661.782 15.8966 660.635 21.9166 660.635 30.2299V81.8299C660.635 92.7233 662.068 100.75 664.935 105.91C668.948 113.65 673.822 120.673 679.555 126.98C685.575 133.287 690.162 138.59 693.315 142.89C696.468 146.903 699.335 151.633 701.915 157.08C707.648 169.12 710.515 183.31 710.515 199.65V280.06C710.515 298.12 699.622 307.15 677.835 307.15C656.335 307.15 645.585 297.69 645.585 278.77V219H660.635V278.34C660.635 286.653 661.782 292.817 664.075 296.83C666.368 300.557 670.955 302.42 677.835 302.42C684.715 302.42 689.302 300.557 691.595 296.83C694.175 292.817 695.465 286.653 695.465 278.34V203.09C695.465 186.75 694.032 175.283 691.165 168.69C687.152 158.943 682.135 150.773 676.115 144.18C670.382 137.587 665.938 132.427 662.785 128.7C659.632 124.973 656.765 120.96 654.185 116.66C648.452 106.627 645.585 95.7333 645.585 83.9799V28.5099Z" fill="#293A50"/>
<path d="M66.5296 3.99991V305H51.4796V151.49H16.6496V305H1.59961V3.99991H16.6496V145.04H51.4796V3.99991H66.5296Z" stroke="#293A50" stroke-width="2" mask="url(#path-1-outside-1_305_2731)"/>
<path d="M168.604 280.49C168.604 298.263 157.711 307.15 135.924 307.15C114.424 307.15 103.674 297.977 103.674 279.63V28.0799C103.674 10.3066 114.424 1.41992 135.924 1.41992C157.711 1.41992 168.604 10.5933 168.604 28.9399V280.49ZM153.554 30.6599C153.554 22.0599 152.551 16.1833 150.544 13.0299C148.538 9.58992 144.094 7.86992 137.214 7.86992C130.334 7.86992 125.461 9.44659 122.594 12.5999C120.014 15.4666 118.724 21.0566 118.724 29.3699V278.34C118.724 286.653 119.728 292.53 121.734 295.97C123.741 299.41 128.184 301.13 135.064 301.13C141.944 301.13 146.674 299.553 149.254 296.4C152.121 293.247 153.554 287.513 153.554 279.2V30.6599Z" stroke="#293A50" stroke-width="2" mask="url(#path-1-outside-1_305_2731)"/>
<path d="M205.749 3.99991H220.799V298.55H262.509V305H205.749V3.99991Z" stroke="#293A50" stroke-width="2" mask="url(#path-1-outside-1_305_2731)"/>
<path d="M313.215 3.99991V305H298.165V3.99991H313.215Z" stroke="#293A50" stroke-width="2" mask="url(#path-1-outside-1_305_2731)"/>
<path d="M386.389 3.99991C405.596 5.14658 415.199 14.0333 415.199 30.6599V277.48C415.199 295.827 404.736 305 383.809 305H350.269V3.99991H386.389ZM365.319 10.4499V298.98H383.809C390.689 298.98 395.132 297.26 397.139 293.82C399.146 290.38 400.149 284.503 400.149 276.19V31.9499C400.149 24.2099 399.002 18.9066 396.709 16.0399C394.416 12.8866 390.402 11.0233 384.669 10.4499H365.319Z" stroke="#293A50" stroke-width="2" mask="url(#path-1-outside-1_305_2731)"/>
<path d="M452.344 305L485.884 3.99991H491.904L521.574 305H506.524L497.494 206.1H469.114L458.364 305H452.344ZM469.974 199.65H497.064L485.024 65.9199L469.974 199.65Z" stroke="#293A50" stroke-width="2" mask="url(#path-1-outside-1_305_2731)"/>
<path d="M567.211 305V176L541.411 3.99991H556.461L579.251 158.37L603.331 3.99991H609.781L582.261 175.57V305H567.211Z" stroke="#293A50" stroke-width="2" mask="url(#path-1-outside-1_305_2731)"/>
<path d="M645.585 28.5099C645.585 10.4499 656.335 1.41992 677.835 1.41992C699.622 1.41992 710.515 10.8799 710.515 29.7999V89.9999H695.465V30.2299C695.465 21.9166 694.318 15.8966 692.025 12.1699C689.732 8.15658 685.145 6.14991 678.265 6.14991C671.385 6.14991 666.655 8.15658 664.075 12.1699C661.782 15.8966 660.635 21.9166 660.635 30.2299V81.8299C660.635 92.7233 662.068 100.75 664.935 105.91C668.948 113.65 673.822 120.673 679.555 126.98C685.575 133.287 690.162 138.59 693.315 142.89C696.468 146.903 699.335 151.633 701.915 157.08C707.648 169.12 710.515 183.31 710.515 199.65V280.06C710.515 298.12 699.622 307.15 677.835 307.15C656.335 307.15 645.585 297.69 645.585 278.77V219H660.635V278.34C660.635 286.653 661.782 292.817 664.075 296.83C666.368 300.557 670.955 302.42 677.835 302.42C684.715 302.42 689.302 300.557 691.595 296.83C694.175 292.817 695.465 286.653 695.465 278.34V203.09C695.465 186.75 694.032 175.283 691.165 168.69C687.152 158.943 682.135 150.773 676.115 144.18C670.382 137.587 665.938 132.427 662.785 128.7C659.632 124.973 656.765 120.96 654.185 116.66C648.452 106.627 645.585 95.7333 645.585 83.9799V28.5099Z" stroke="#293A50" stroke-width="2" mask="url(#path-1-outside-1_305_2731)"/>
</svg>
